<?xml version="1.0" encoding="UTF-8" standalone="no"?>
<!-- Created with Inkscape (http://www.inkscape.org/) -->

<svg
   xmlns:dc="http://purl.org/dc/elements/1.1/"
   xmlns:cc="http://creativecommons.org/ns#"
   xmlns:rdf="http://www.w3.org/1999/02/22-rdf-syntax-ns#"
   xmlns:svg="http://www.w3.org/2000/svg"
   xmlns="http://www.w3.org/2000/svg"
   xmlns:sodipodi="http://sodipodi.sourceforge.net/DTD/sodipodi-0.dtd"
   xmlns:inkscape="http://www.inkscape.org/namespaces/inkscape"
   width="110.25549mm"
   height="110.2555mm"
   viewBox="0 0 110.25549 110.2555"
   version="1.1"
   id="svg8"
   inkscape:version="0.92.3 (unknown)"
   sodipodi:docname="logo.svg">
  <defs
     id="defs2" />
  <sodipodi:namedview
     id="base"
     pagecolor="#ffffff"
     bordercolor="#666666"
     borderopacity="1.0"
     inkscape:pageopacity="0.0"
     inkscape:pageshadow="2"
     inkscape:zoom="0.98994949"
     inkscape:cx="-36.15763"
     inkscape:cy="214.60093"
     inkscape:document-units="mm"
     inkscape:current-layer="layer1"
     showgrid="false"
     fit-margin-top="0"
     fit-margin-left="0"
     fit-margin-right="0"
     fit-margin-bottom="0"
     inkscape:window-width="1615"
     inkscape:window-height="1026"
     inkscape:window-x="65"
     inkscape:window-y="24"
     inkscape:window-maximized="1" />
  <metadata
     id="metadata5">
    <rdf:RDF>
      <cc:Work
         rdf:about="">
        <dc:format>image/svg+xml</dc:format>
        <dc:type
           rdf:resource="http://purl.org/dc/dcmitype/StillImage" />
        <dc:title></dc:title>
      </cc:Work>
    </rdf:RDF>
  </metadata>
  <g
     inkscape:label="Layer 1"
     inkscape:groupmode="layer"
     id="layer1"
     transform="translate(214.86166,58.648466)">
    <path
       style="opacity:1;fill:#adff2f;fill-opacity:1;stroke:none;stroke-width:2.18100142;stroke-linecap:round;stroke-miterlimit:4;stroke-dasharray:none;stroke-dashoffset:0;stroke-opacity:1"
       d="m -159.73392,-53.99534 a 50.474608,50.474608 0 0 0 -50.47461,50.4746242 50.474608,50.474608 0 0 0 50.47461,50.4746228 50.474608,50.474608 0 0 0 50.47461,-50.4746228 50.474608,50.474608 0 0 0 -50.47461,-50.4746242 z m 0,2.819136 a 47.655533,47.655533 0 0 1 47.65549,47.6554882 47.655533,47.655533 0 0 1 -47.65549,47.6554878 47.655533,47.655533 0 0 1 -47.65548,-47.6554878 47.655533,47.655533 0 0 1 47.65548,-47.6554882 z"
       id="circle842"
       inkscape:connector-curvature="0" />
    <path
       style="opacity:1;fill:#32cd32;fill-opacity:1;stroke:none;stroke-width:1.89779186;stroke-linecap:round;stroke-miterlimit:4;stroke-dasharray:none;stroke-dashoffset:0;stroke-opacity:1"
       d="m -159.73392,-47.440849 a 43.920328,43.920328 0 0 0 -43.92013,43.9201333 43.920328,43.920328 0 0 0 43.92013,43.9206337 43.920328,43.920328 0 0 0 43.92014,-43.9206337 43.920328,43.920328 0 0 0 -43.92014,-43.9201333 z m 0,22.299682 a 21.620575,21.620575 0 0 1 21.62045,21.6204513 21.620575,21.620575 0 0 1 -21.62045,21.6204507 21.620575,21.620575 0 0 1 -21.62045,-21.6204507 21.620575,21.620575 0 0 1 21.62045,-21.6204513 z"
       id="circle825"
       inkscape:connector-curvature="0" />
    <path
       style="opacity:1;fill:#356d00;fill-opacity:1;stroke:none;stroke-width:1.38398945;stroke-linecap:round;stroke-miterlimit:4;stroke-dasharray:none;stroke-dashoffset:0;stroke-opacity:1"
       d="m -159.73392,-35.55005 a 32.029473,32.029473 0 0 0 -32.02934,32.0293343 32.029473,32.029473 0 0 0 32.02934,32.0293347 32.029473,32.029473 0 0 0 32.02934,-32.0293347 32.029473,32.029473 0 0 0 -32.02934,-32.0293343 z m 0,14.475776 a 17.553648,17.553648 0 0 1 17.55357,17.5535583 17.553648,17.553648 0 0 1 -17.55357,17.5535587 17.553648,17.553648 0 0 1 -17.55356,-17.5535587 17.553648,17.553648 0 0 1 17.55356,-17.5535583 z"
       id="path817"
       inkscape:connector-curvature="0" />
    <path
       style="opacity:1;fill:#e9f6d4;fill-opacity:1;stroke:none;stroke-width:2.382056;stroke-linecap:round;stroke-miterlimit:4;stroke-dasharray:none;stroke-dashoffset:0;stroke-opacity:1"
       d="m -159.73392,-58.648466 a 55.127582,55.127582 0 0 0 -55.12774,55.1277504 55.127582,55.127582 0 0 0 55.12774,55.1277506 55.127582,55.127582 0 0 0 55.12775,-55.1277506 55.127582,55.127582 0 0 0 -55.12775,-55.1277504 z m 0,1.067259 a 54.060534,54.060534 0 0 1 54.06049,54.0604914 54.060534,54.060534 0 0 1 -54.06049,54.0604916 54.060534,54.060534 0 0 1 -54.06048,-54.0604916 54.060534,54.060534 0 0 1 54.06048,-54.0604914 z"
       id="path850"
       inkscape:connector-curvature="0" />
  </g>
</svg>
