<svg width="20" height="20" viewBox="0 0 20 20" xmlns="http://www.w3.org/2000/svg">
<rect width="20" height="20" fill="transparent"/>
<path d="M14.581 0.419015C14.0224 -0.139672 13.1165 -0.139672 12.5579 0.419015L7.5 5.47686L2.44214 0.419015C1.88355 -0.139672 0.977705 -0.139672 0.419017 0.419015C-0.139672 0.977702 -0.139672 1.88345 0.419017 2.44213L5.47688 7.49998L0.419017 12.5578C-0.139672 13.1165 -0.139672 14.0223 0.419017 14.5809C0.698361 14.8603 1.06449 15 1.43053 15C1.79666 15 2.1628 14.8604 2.44205 14.5809L7.49991 9.52309L12.5578 14.5809C12.8371 14.8603 13.2032 15 13.5693 15C13.9354 15 14.3015 14.8604 14.5809 14.5809C15.1396 14.0223 15.1396 13.1165 14.5809 12.5578L9.52313 7.49998L14.581 2.44213C15.1397 1.88345 15.1397 0.977702 14.581 0.419015Z" transform="translate(3 2)" fill="#000"/>
</svg>
