<svg width="20" height="20" viewBox="0 0 20 20" fill="none" xmlns="http://www.w3.org/2000/svg">
<path d="M19.6155 6.54813C19.28 6.01823 18.7793 5.71429 18.2416 5.71429H15.3399L15.8393 2.89897C16.1033 1.41044 15.2047 0 13.9978 0C13.3634 0 12.7755 0.398079 12.425 1.06488L9.98114 5.71429H6.64053V4.48276C6.64053 4.07468 6.37818 3.74384 6.05459 3.74384H0.585936C0.262343 3.74384 0 4.07468 0 4.48276V19.2611C0 19.6692 0.262343 20 0.585936 20H6.05463C6.37822 20 6.64057 19.6692 6.64057 19.2611V18.0296H17.7566C18.0302 18.0296 18.2674 17.7908 18.328 17.4544L19.9557 8.42227C20.0749 7.76113 19.9508 7.07798 19.6155 6.54813ZM5.4687 18.5222H3.9062V14.335C3.9062 13.9269 3.64386 13.5961 3.32026 13.5961C2.99667 13.5961 2.73433 13.9269 2.73433 14.335V18.5222H1.17187V5.22168H5.4687C5.4687 6.19463 5.4687 17.8289 5.4687 18.5222ZM18.813 8.09478L17.2889 16.5517H6.64057V7.19212H10.2958C10.4922 7.19212 10.6756 7.06793 10.7841 6.86143L13.4018 1.88133C13.5346 1.62867 13.7575 1.47783 13.9978 1.47783C14.4561 1.47783 14.7955 2.0135 14.6956 2.5764L14.0366 6.29192C13.9548 6.7532 14.2333 7.19212 14.6084 7.19212H18.2417C18.4209 7.19212 18.5878 7.29345 18.6996 7.4701C18.8114 7.64665 18.8527 7.87438 18.813 8.09478Z" fill="white"/>
</svg>
