<svg width="20" height="20" viewBox="0 0 20 20" fill="none" xmlns="http://www.w3.org/2000/svg">
<path d="M16.276 12.552C15.0308 12.552 13.9266 13.1665 13.2501 14.108L7.27549 11.1207C7.38741 10.7668 7.44792 10.3904 7.44792 9.99998C7.44792 9.60959 7.38737 9.23311 7.27549 8.87928L13.2501 5.89202C13.9265 6.8335 15.0308 7.44795 16.276 7.44795C18.3294 7.44795 20 5.77737 20 3.72398C20 1.67054 18.3294 0 16.276 0C14.2227 0 12.5521 1.67054 12.5521 3.72394C12.5521 4.11429 12.6126 4.49073 12.7245 4.84456L6.74991 7.83186C6.07343 6.89042 4.96917 6.27604 3.72402 6.27604C1.67062 6.27604 0 7.94659 0 9.99998C0 12.0534 1.67058 13.7239 3.72398 13.7239C4.96913 13.7239 6.07343 13.1095 6.74987 12.1681L12.7245 15.1554C12.6126 15.5092 12.5521 15.8857 12.5521 16.2761C12.5521 18.3295 14.2226 20 16.276 20C18.3294 20 20 18.3294 20 16.276C20 14.2226 18.3294 12.552 16.276 12.552ZM16.276 1.17187C17.6832 1.17187 18.8281 2.31671 18.8281 3.72394C18.8281 5.13116 17.6832 6.27604 16.276 6.27604C14.8688 6.27604 13.724 5.13116 13.724 3.72394C13.724 2.31671 14.8688 1.17187 16.276 1.17187ZM3.72398 12.552C2.31679 12.552 1.17187 11.4072 1.17187 9.99998C1.17187 8.59276 2.31675 7.44792 3.72398 7.44792C5.13116 7.44792 6.276 8.59276 6.276 9.99998C6.276 11.4072 5.1312 12.552 3.72398 12.552ZM16.276 18.8281C14.8688 18.8281 13.724 17.6832 13.724 16.276C13.724 14.8688 14.8688 13.7239 16.276 13.7239C17.6832 13.7239 18.8281 14.8688 18.8281 16.276C18.8281 17.6832 17.6832 18.8281 16.276 18.8281Z" fill="white"/>
</svg>
