<svg width="20" height="20" viewBox="0 0 20 20" fill="none" xmlns="http://www.w3.org/2000/svg">
<path d="M5.64817 1.54418C5.39942 1.33723 5.02993 1.37109 4.82302 1.61992L4.10157 2.48715L2.20825 0.211211C2.09696 0.0773827 1.93188 0 1.75782 0C1.58376 0 1.41872 0.0773827 1.30739 0.211211L0.135516 1.61992C-0.0714372 1.86871 -0.0375702 2.23816 0.211219 2.44512C0.459969 2.65199 0.829422 2.61816 1.03638 2.36937L1.75782 1.50215L3.65114 3.77809C3.76243 3.91191 3.92751 3.9893 4.10157 3.9893C4.27563 3.9893 4.44067 3.91191 4.552 3.77809L5.72388 2.36937C5.93083 2.12058 5.89696 1.75117 5.64817 1.54418Z" transform="translate(3.90619 8.80615)" fill="white"/>
<path d="M20 6.83594C20 3.0666 16.9334 0 13.1641 0C10.4662 0 8.07441 1.57301 6.96797 3.94668C6.92387 3.94582 6.87984 3.94531 6.83594 3.94531C3.0666 3.94531 0 7.01191 0 10.7812C0 13.3922 1.4668 15.7422 3.7759 16.8955L3.29758 19.2997C3.25098 19.5341 3.35129 19.7732 3.55113 19.9042C3.75086 20.035 4.01016 20.0317 4.20656 19.8953L7.53715 17.5814C9.88934 17.3415 11.8702 15.9144 12.8998 13.9396L15.7934 15.95C15.9874 16.0848 16.2468 16.0912 16.4488 15.9589C16.6487 15.8279 16.749 15.5887 16.7024 15.3544L16.2241 12.9502C18.5332 11.7969 20 9.44687 20 6.83594ZM7.28445 16.4275C7.18078 16.4357 7.08117 16.4712 6.99574 16.5305L4.7302 18.1045L5.01566 16.6698C5.0702 16.3957 4.92367 16.1214 4.66563 16.0143C2.54324 15.1333 1.17188 13.0793 1.17188 10.7812C1.17188 7.65808 3.71277 5.11719 6.83594 5.11719C9.96633 5.11719 12.5 7.65441 12.5 10.7812C12.5 13.7629 10.1995 16.1999 7.28445 16.4275ZM15.3344 12.069C15.0764 12.1761 14.9298 12.4505 14.9843 12.7245L15.2698 14.1592L13.359 12.8317C13.5633 12.1823 13.6719 11.4871 13.6719 10.7812C13.6719 7.52441 11.3773 4.73051 8.21145 4.0841C9.16363 2.37012 11.0105 1.17187 13.1641 1.17187C16.2872 1.17187 18.8281 3.71277 18.8281 6.83594C18.8281 9.13394 17.4568 11.188 15.3344 12.069Z" fill="white"/>
</svg>
