<?xml version="1.0" encoding="UTF-8" standalone="no"?>
<!-- Created with Inkscape (http://www.inkscape.org/) -->

<svg
   xmlns:dc="http://purl.org/dc/elements/1.1/"
   xmlns:cc="http://creativecommons.org/ns#"
   xmlns:rdf="http://www.w3.org/1999/02/22-rdf-syntax-ns#"
   xmlns:svg="http://www.w3.org/2000/svg"
   xmlns="http://www.w3.org/2000/svg"
   xmlns:sodipodi="http://sodipodi.sourceforge.net/DTD/sodipodi-0.dtd"
   xmlns:inkscape="http://www.inkscape.org/namespaces/inkscape"
   width="6708.6729"
   height="2434.4231"
   viewBox="0 0 1775.003 644.10778"
   version="1.1"
   id="svg8"
   inkscape:version="0.92.3 (unknown)"
   sodipodi:docname="newdate.svg">
  <defs
     id="defs2">
    <filter
       style="color-interpolation-filters:sRGB"
       inkscape:label="Drop Shadow"
       id="filter2989">
      <feFlood
         flood-opacity="0.0431373"
         flood-color="rgb(83,57,57)"
         result="flood"
         id="feFlood2979" />
      <feComposite
         in="flood"
         in2="SourceGraphic"
         operator="in"
         result="composite1"
         id="feComposite2981" />
      <feGaussianBlur
         in="composite1"
         stdDeviation="2.1"
         result="blur"
         id="feGaussianBlur2983" />
      <feOffset
         dx="0"
         dy="0"
         result="offset"
         id="feOffset2985" />
      <feComposite
         in="SourceGraphic"
         in2="offset"
         operator="over"
         result="composite2"
         id="feComposite2987" />
    </filter>
    <filter
       style="color-interpolation-filters:sRGB"
       inkscape:label="Drop Shadow"
       id="filter3183">
      <feFlood
         flood-opacity="0.0784314"
         flood-color="rgb(0,0,0)"
         result="flood"
         id="feFlood3173" />
      <feComposite
         in="flood"
         in2="SourceGraphic"
         operator="in"
         result="composite1"
         id="feComposite3175" />
      <feGaussianBlur
         in="composite1"
         stdDeviation="1.7"
         result="blur"
         id="feGaussianBlur3177" />
      <feOffset
         dx="0"
         dy="0"
         result="offset"
         id="feOffset3179" />
      <feComposite
         in="SourceGraphic"
         in2="offset"
         operator="over"
         result="fbSourceGraphic"
         id="feComposite3181" />
      <feColorMatrix
         result="fbSourceGraphicAlpha"
         in="fbSourceGraphic"
         values="0 0 0 -1 0 0 0 0 -1 0 0 0 0 -1 0 0 0 0 1 0"
         id="feColorMatrix3185" />
      <feFlood
         id="feFlood3187"
         flood-opacity="0.0784314"
         flood-color="rgb(0,0,0)"
         result="flood"
         in="fbSourceGraphic" />
      <feComposite
         in2="fbSourceGraphic"
         id="feComposite3189"
         in="flood"
         operator="in"
         result="composite1" />
      <feGaussianBlur
         id="feGaussianBlur3191"
         in="composite1"
         stdDeviation="1.7"
         result="blur" />
      <feOffset
         id="feOffset3193"
         dx="0"
         dy="0"
         result="offset" />
      <feComposite
         in2="offset"
         id="feComposite3195"
         in="fbSourceGraphic"
         operator="over"
         result="fbSourceGraphic" />
      <feColorMatrix
         result="fbSourceGraphicAlpha"
         in="fbSourceGraphic"
         values="0 0 0 -1 0 0 0 0 -1 0 0 0 0 -1 0 0 0 0 1 0"
         id="feColorMatrix3197" />
      <feFlood
         id="feFlood3199"
         flood-opacity="0.0784314"
         flood-color="rgb(0,0,0)"
         result="flood"
         in="fbSourceGraphic" />
      <feComposite
         in2="fbSourceGraphic"
         id="feComposite3201"
         in="flood"
         operator="in"
         result="composite1" />
      <feGaussianBlur
         id="feGaussianBlur3203"
         in="composite1"
         stdDeviation="1.7"
         result="blur" />
      <feOffset
         id="feOffset3205"
         dx="0"
         dy="0"
         result="offset" />
      <feComposite
         in2="offset"
         id="feComposite3207"
         in="fbSourceGraphic"
         operator="over"
         result="composite2" />
    </filter>
  </defs>
  <sodipodi:namedview
     id="base"
     pagecolor="white"
     bordercolor="#666666"
     borderopacity="1.0"
     inkscape:pageopacity="0"
     inkscape:pageshadow="2"
     inkscape:zoom="0.04375"
     inkscape:cx="443.85743"
     inkscape:cy="5092.6259"
     inkscape:document-units="mm"
     inkscape:current-layer="layer1"
     showgrid="false"
     fit-margin-top="0"
     fit-margin-left="0"
     fit-margin-right="0"
     fit-margin-bottom="0"
     inkscape:window-width="1615"
     inkscape:window-height="1026"
     inkscape:window-x="65"
     inkscape:window-y="24"
     inkscape:window-maximized="1"
     units="px"
     showguides="true"
     inkscape:guide-bbox="true">
    <sodipodi:guide
       position="2628.6031,165.36949"
       orientation="1,0"
       id="guide4536"
       inkscape:locked="false" />
  </sodipodi:namedview>
  <metadata
     id="metadata5">
    <rdf:RDF>
      <cc:Work
         rdf:about="">
        <dc:format>image/svg+xml</dc:format>
        <dc:type
           rdf:resource="http://purl.org/dc/dcmitype/StillImage" />
        <dc:title></dc:title>
      </cc:Work>
    </rdf:RDF>
  </metadata>
  <g
     inkscape:label="Layer 1"
     inkscape:groupmode="layer"
     id="layer1"
     transform="translate(3750.0521,-14.39684)">
    <g
       id="g2433"
       transform="matrix(3.0840614,0,0,3.0840614,-2374.465,195.27231)">
      <path
         inkscape:connector-curvature="0"
         id="circle842"
         d="m -159.73392,-53.99534 a 50.474608,50.474608 0 0 0 -50.47461,50.4746242 50.474608,50.474608 0 0 0 50.47461,50.4746228 50.474608,50.474608 0 0 0 50.47461,-50.4746228 50.474608,50.474608 0 0 0 -50.47461,-50.4746242 z m 0,2.819136 a 47.655533,47.655533 0 0 1 47.65549,47.6554882 47.655533,47.655533 0 0 1 -47.65549,47.6554878 47.655533,47.655533 0 0 1 -47.65548,-47.6554878 47.655533,47.655533 0 0 1 47.65548,-47.6554882 z"
         style="opacity:1;fill:#adff2f;fill-opacity:1;stroke:none;stroke-width:2.18100142;stroke-linecap:round;stroke-miterlimit:4;stroke-dasharray:none;stroke-dashoffset:0;stroke-opacity:1" />
      <path
         inkscape:connector-curvature="0"
         id="circle825"
         d="m -159.73392,-47.440849 a 43.920328,43.920328 0 0 0 -43.92013,43.9201333 43.920328,43.920328 0 0 0 43.92013,43.9206337 43.920328,43.920328 0 0 0 43.92014,-43.9206337 43.920328,43.920328 0 0 0 -43.92014,-43.9201333 z m 0,22.299682 a 21.620575,21.620575 0 0 1 21.62045,21.6204513 21.620575,21.620575 0 0 1 -21.62045,21.6204507 21.620575,21.620575 0 0 1 -21.62045,-21.6204507 21.620575,21.620575 0 0 1 21.62045,-21.6204513 z"
         style="opacity:1;fill:#32cd32;fill-opacity:1;stroke:none;stroke-width:1.89779186;stroke-linecap:round;stroke-miterlimit:4;stroke-dasharray:none;stroke-dashoffset:0;stroke-opacity:1" />
      <path
         inkscape:connector-curvature="0"
         id="path817"
         d="m -159.73392,-35.55005 a 32.029473,32.029473 0 0 0 -32.02934,32.0293343 32.029473,32.029473 0 0 0 32.02934,32.0293347 32.029473,32.029473 0 0 0 32.02934,-32.0293347 32.029473,32.029473 0 0 0 -32.02934,-32.0293343 z m 0,14.475776 a 17.553648,17.553648 0 0 1 17.55357,17.5535583 17.553648,17.553648 0 0 1 -17.55357,17.5535587 17.553648,17.553648 0 0 1 -17.55356,-17.5535587 17.553648,17.553648 0 0 1 17.55356,-17.5535583 z"
         style="opacity:1;fill:#356d00;fill-opacity:1;stroke:none;stroke-width:1.38398945;stroke-linecap:round;stroke-miterlimit:4;stroke-dasharray:none;stroke-dashoffset:0;stroke-opacity:1" />
      <path
         inkscape:connector-curvature="0"
         id="path850"
         d="m -159.73392,-58.648466 a 55.127582,55.127582 0 0 0 -55.12774,55.1277504 55.127582,55.127582 0 0 0 55.12774,55.1277506 55.127582,55.127582 0 0 0 55.12775,-55.1277506 55.127582,55.127582 0 0 0 -55.12775,-55.1277504 z m 0,1.067259 a 54.060534,54.060534 0 0 1 54.06049,54.0604914 54.060534,54.060534 0 0 1 -54.06049,54.0604916 54.060534,54.060534 0 0 1 -54.06048,-54.0604916 54.060534,54.060534 0 0 1 54.06048,-54.0604914 z"
         style="opacity:1;fill:#e9f6d4;fill-opacity:1;stroke:none;stroke-width:2.382056;stroke-linecap:round;stroke-miterlimit:4;stroke-dasharray:none;stroke-dashoffset:0;stroke-opacity:1" />
    </g>
    <g
       id="g3681"
       transform="matrix(0.26458333,0,0,0.26458333,-2453.6826,533.07443)">
      <g
         id="g3608">
	<path
   id="path3572"
   d="m 232,0 c -49.449,0 -160,26.236 -160,168 0,33.667 7.087,72.872 24,120 89.972,15.877 182.029,15.877 272,0 16.913,-47.128 24,-86.334 24,-120 0,-141.764 -110.551,-168 -160,-168 z"
   style="fill:#9d6e48"
   inkscape:connector-curvature="0" />

	<path
   id="path3574"
   d="m 72,168 c 0,33.667 7.087,72.872 24,120 40.099,7.076 80.615,10.816 121.173,11.585 0,0 -63.506,-151.252 -29.245,-293.719 -52.306,13.552 -115.928,54.58 -115.928,162.134 z"
   style="fill:#8d5f3d"
   inkscape:connector-curvature="0" />

	<path
   id="path3576"
   d="m 380.378,436.829 -9.576,-71.817 c -1.752,-13.142 -9.902,-24.562 -21.761,-30.491 l -17.232,-8.616 c -2.567,-1.284 -5.51,-0.145 -6.766,2.29 l -34.103,-12.548 c -6.533,-2.178 -10.94,-8.292 -10.94,-15.179 v -25.802 l 34.461,-14.359 c 17.888,-7.452 29.539,-24.929 29.539,-44.307 v 0 c 13.255,0 24,-10.745 24,-24 0,-13.255 -10.745,-24 -24,-24 v -24 c 0,-22.092 -17.909,-40 -40,-40 h -144 c -22.091,0 -40,17.909 -40,40 v 24 c -13.255,0 -24,10.745 -24,24 0,13.255 10.745,24 24,24 v 0 c 0,19.378 11.651,36.855 29.538,44.308 l 34.462,14.359 v 25.801 c 0,6.887 -4.407,13.001 -10.94,15.179 l -34.101,12.547 c -1.242,-2.438 -4.18,-3.583 -6.742,-2.302 l -15.714,7.857 c -13.41,6.705 -21.552,18.121 -23.304,31.262 l -0.388,2.908 v 0.001 l -9.188,68.908 c -1.918,14.388 9.275,27.172 23.79,27.172 h 249.175 c 14.515,0 25.708,-12.784 23.79,-27.171 z"
   style="fill:#ffd7a3"
   inkscape:connector-curvature="0" />

	<path
   id="path3578"
   d="m 184,274 v 26.468 c 0,5.693 -3.017,10.852 -7.752,13.701 63.753,11.015 100.192,-35.801 103.504,-40.17 h -95.752 z"
   style="fill:#fdc88e"
   inkscape:connector-curvature="0" />

	<path
   id="path3580"
   d="m 344,168 v -24 c 0,-22.092 -17.909,-40 -40,-40 h -144 c -22.091,0 -40,17.909 -40,40 v 24 c -13.255,0 -24,10.745 -24,24 0,13.255 10.745,24 24,24 v 0 c 0,19.378 11.651,36.855 29.538,44.308 l 51.691,21.538 c 9.75,4.063 20.208,6.154 30.77,6.154 v 0 c 10.562,0 21.019,-2.091 30.769,-6.154 l 51.694,-21.539 c 17.887,-7.452 29.538,-24.929 29.538,-44.307 v 0 c 13.255,0 24,-10.745 24,-24 0,-13.255 -10.745,-24 -24,-24 z"
   style="fill:#ffe1b2"
   inkscape:connector-curvature="0" />

	<path
   id="path3582"
   d="m 176,192 v 0 c -4.4,0 -8,-3.6 -8,-8 v -8 c 0,-4.4 3.6,-8 8,-8 v 0 c 4.4,0 8,3.6 8,8 v 8 c 0,4.4 -3.6,8 -8,8 z"
   style="fill:#623f33"
   inkscape:connector-curvature="0" />

	<path
   id="path3584"
   d="m 288,192 v 0 c -4.4,0 -8,-3.6 -8,-8 v -8 c 0,-4.4 3.6,-8 8,-8 v 0 c 4.4,0 8,3.6 8,8 v 8 c 0,4.4 -3.6,8 -8,8 z"
   style="fill:#623f33"
   inkscape:connector-curvature="0" />

	<g
   id="g3588">
		<path
   id="path3586"
   d="m 232,248.219 c -14.223,0 -27.527,-3.5 -36.5,-9.605 -3.652,-2.484 -4.602,-7.461 -2.113,-11.113 2.48,-3.648 7.461,-4.598 11.113,-2.113 6.289,4.277 16.57,6.832 27.5,6.832 10.93,0 21.211,-2.555 27.5,-6.832 3.66,-2.492 8.629,-1.539 11.113,2.113 2.488,3.652 1.539,8.629 -2.113,11.113 -8.972,6.105 -22.277,9.605 -36.5,9.605 z"
   style="fill:#e4b07b"
   inkscape:connector-curvature="0" />

	</g>

	<path
   id="path3590"
   d="m 120,168 c -13.255,0 -24,10.745 -24,24 0,13.255 10.745,24 24,24 0,19.378 11.651,36.855 29.538,44.308 l 51.69,21.538 c 2.53,1.054 5.112,1.962 7.727,2.749 -22.844,-16.711 -38.05,-31.32 -46.96,-40.872 -6.482,-6.95 -9.995,-16.121 -9.995,-25.625 v -57.919 c 24.637,0.776 77.746,2.802 123,-21.389 v -30.79 h -155 z"
   style="fill:#ffd7a3"
   inkscape:connector-curvature="0" />

	<path
   id="path3592"
   d="m 349.041,334.521 -17.232,-8.616 c -2.92,-1.46 -6.327,0.212 -7.184,3.362 -11.09,40.761 -48.352,70.736 -92.626,70.736 -44.285,0 -81.555,-29.99 -92.635,-70.767 -0.852,-3.134 -4.242,-4.797 -7.146,-3.345 l -15.714,7.857 c -13.41,6.705 -21.552,18.121 -23.304,31.262 l -9.576,71.817 c -1.918,14.388 9.275,27.172 23.789,27.172 h 249.176 c 14.515,0 25.708,-12.784 23.789,-27.172 l -9.576,-71.817 c -1.752,-13.14 -9.902,-24.56 -21.761,-30.489 z"
   style="fill:#8db9e2"
   inkscape:connector-curvature="0" />

	<path
   id="path3594"
   d="m 96.843,353.124 c -1.813,3.734 -3.087,7.708 -3.645,11.887 l -9.576,71.817 c -1.918,14.388 9.275,27.172 23.79,27.172 h 36.588 v -32 c 0,-10.386 -3.369,-20.491 -9.6,-28.8 z"
   style="fill:#6aa2de"
   inkscape:connector-curvature="0" />

	<path
   id="path3596"
   d="m 367.157,353.124 c 1.813,3.734 3.087,7.708 3.645,11.887 l 9.576,71.817 c 1.918,14.388 -9.275,27.172 -23.79,27.172 h -36.588 v -32 c 0,-10.386 3.368,-20.491 9.6,-28.8 z"
   style="fill:#6aa2de"
   inkscape:connector-curvature="0" />

	<path
   id="path3598"
   d="m 117,105 v 31 c 0,0 33.371,13 90.357,8 l 8.214,-32 8.214,32 c 22.589,-2 32.857,-8 32.857,-8 l 8.214,-16 8.214,24 c 0,0 29.435,-0.333 49.286,-8 l 8.214,-16 16.43,40 v -57 c 0,0 -33.884,-48 -118.08,-48 -83.854,0 -111.92,50 -111.92,50 z"
   style="fill:#9d6e48"
   inkscape:connector-curvature="0" />

	<path
   id="path3600"
   d="m 203.404,56.659 c -64.134,8.667 -86.404,48.341 -86.404,48.341 v 31 c 0,0 20.954,8.106 57.897,9.03 0,0 -0.352,-52.781 28.507,-88.371 z"
   style="fill:#8d5f3d"
   inkscape:connector-curvature="0" />

	<g
   id="g3604">
		<path
   id="path3602"
   d="m 343.789,112 c -2.645,0 -5.23,-1.313 -6.758,-3.703 -16.859,-26.492 -59.066,-44.297 -105.031,-44.297 -45.965,0 -88.172,17.805 -105.031,44.297 -2.367,3.719 -7.32,4.813 -11.043,2.453 -3.73,-2.375 -4.828,-7.32 -2.457,-11.047 19.988,-31.406 66.516,-51.703 118.531,-51.703 52.015,0 98.543,20.297 118.531,51.703 2.371,3.727 1.273,8.672 -2.457,11.047 -1.328,0.844 -2.816,1.25 -4.285,1.25 z"
   style="fill:#ffc84a"
   inkscape:connector-curvature="0" />

	</g>

	<path
   id="path3606"
   d="m 347,156 h -83 c -6.617,0 -12,5.383 -12,12 v 0.432 c -5.086,-5.198 -12.172,-8.432 -20,-8.432 -7.828,0 -14.914,3.234 -20,8.432 v -0.432 c 0,-6.617 -5.383,-12 -12,-12 h -83 c -2.209,0 -4,1.791 -4,4 0,2.209 1.791,4 4,4 h 23.7 c -0.445,1.253 -0.7,2.596 -0.7,4 v 24 c 0,6.617 5.383,12 12,12 h 48 c 6.617,0 12,-5.383 12,-12 v -4 c 0,-11.027 8.973,-20 20,-20 11.027,0 20,8.973 20,20 v 4 c 0,6.617 5.383,12 12,12 h 48 c 6.617,0 12,-5.383 12,-12 v -24 c 0,-1.404 -0.255,-2.747 -0.7,-4 h 23.7 c 2.209,0 4,-1.791 4,-4 0,-2.209 -1.791,-4 -4,-4 z m -143,36 c 0,2.203 -1.793,4 -4,4 h -48 c -2.207,0 -4,-1.797 -4,-4 v -24 c 0,-2.203 1.793,-4 4,-4 h 48 c 2.207,0 4,1.797 4,4 z m 112,-24 v 24 c 0,2.203 -1.793,4 -4,4 h -48 c -2.207,0 -4,-1.797 -4,-4 v -24 c 0,-2.203 1.793,-4 4,-4 h 48 c 2.207,0 4,1.797 4,4 z"
   style="fill:#734a3e"
   inkscape:connector-curvature="0" />

</g>
      <g
         id="g3610">
</g>
      <g
         id="g3612">
</g>
      <g
         id="g3614">
</g>
      <g
         id="g3616">
</g>
      <g
         id="g3618">
</g>
      <g
         id="g3620">
</g>
      <g
         id="g3622">
</g>
      <g
         id="g3624">
</g>
      <g
         id="g3626">
</g>
      <g
         id="g3628">
</g>
      <g
         id="g3630">
</g>
      <g
         id="g3632">
</g>
      <g
         id="g3634">
</g>
      <g
         id="g3636">
</g>
      <g
         id="g3638">
</g>
    </g>
    <g
       id="g3825"
       transform="matrix(0.26458333,0,0,0.26458333,-2930.5944,533.07416)">
      <g
         id="g3741">
	<path
   id="path3683"
   d="m 415.971,422.878 -0.726,-6.536 c -0.287,-2.586 -2.616,-4.449 -5.202,-4.162 l -0.407,0.045 -7.027,-56.214 c -1.529,-12.228 -9.943,-22.492 -21.634,-26.389 l -39.047,-13.016 c -5.362,-1.788 -11.244,-0.649 -15.379,2.874 l -11.502,-3.834 c -6.534,-2.178 -10.94,-8.292 -10.94,-15.179 v -25.802 l 34.461,-14.359 c 17.887,-7.453 29.539,-24.93 29.539,-44.308 v -8 c 13.255,0 24,-10.745 24,-24 0,-13.255 -10.745,-24 -24,-24 v -32 c 0,-22.091 -17.909,-40 -40,-40 h -144 c -22.091,0 -40,17.909 -40,40 v 32 c -13.255,0 -24,10.745 -24,24 0,13.255 10.745,24 24,24 v 8 c 0,19.377 11.651,36.854 29.538,44.308 l 34.462,14.359 v 25.801 c 0,6.887 -4.407,13.001 -10.94,15.179 l -11.502,3.834 c -4.135,-3.523 -10.017,-4.662 -15.379,-2.874 l -39.047,13.016 c -11.691,3.897 -20.105,14.161 -21.634,26.389 l -7.027,56.214 -0.407,-0.045 c -2.586,-0.287 -4.914,1.576 -5.202,4.162 l -0.726,6.536 c -0.287,2.585 1.576,4.914 4.161,5.201 l 11.702,1.3 v 18.621 c 0,8.836 7.163,16 16,16 h 256 c 8.837,0 16,-7.164 16,-16 v -18.621 l 11.702,-1.3 c 2.587,-0.286 4.45,-2.615 4.163,-5.2 z"
   style="fill:#a2795c"
   inkscape:connector-curvature="0" />

	<path
   id="path3685"
   d="m 208.108,300.468 c 0,5.693 -3.017,10.852 -7.753,13.701 66.926,11.563 103.753,-39.503 103.753,-39.503 l -96,10e-4 z"
   style="fill:#8f6951"
   inkscape:connector-curvature="0" />

	<g
   id="g3689">
		<path
   id="path3687"
   d="m 146,112 -90.371,7.364 c -4.312,0.359 -7.629,3.964 -7.629,8.291 v 0.024 c 0,4.595 3.725,8.32 8.32,8.32 h 89.68 z"
   style="fill:#c93f44"
   inkscape:connector-curvature="0" />

	</g>

	<g
   id="g3693">
		<path
   id="path3691"
   d="m 344.108,464.001 v -40 h 67 l -8.499,-67.989 c -1.529,-12.228 -9.943,-22.492 -21.634,-26.389 l -39.047,-13.016 c -6.8,-2.267 -14.45,0.154 -18.291,6.206 -14.18,22.344 -39.106,37.187 -67.529,37.187 -28.423,0 -53.349,-14.844 -67.53,-37.188 -3.841,-6.052 -11.491,-8.473 -18.291,-6.206 l -39.047,13.016 c -11.691,3.897 -20.105,14.161 -21.634,26.389 l -7.609,60.872 66.11,7.117 v 40 z"
   style="fill:#f23f44"
   inkscape:connector-curvature="0" />

	</g>

	<path
   id="path3695"
   d="m 368.108,160 v -32 c 0,-22.091 -17.909,-40 -40,-40 h -144 c -22.091,0 -40,17.909 -40,40 v 32.003 c -0.036,0 -0.072,-0.003 -0.108,-0.003 -13.255,0 -24,10.745 -24,24 0,13.255 10.745,24 24,24 0.036,0 0.072,-0.003 0.108,-0.003 v 8.003 c 0,19.377 11.651,36.854 29.538,44.308 l 51.691,21.538 c 9.75,4.063 20.207,6.154 30.77,6.154 v 0 c 10.562,0 21.019,-2.091 30.769,-6.154 l 51.694,-21.539 c 17.887,-7.453 29.539,-24.93 29.539,-44.308 v -8 c 13.255,0 24,-10.745 24,-24 -10e-4,-13.254 -10.746,-23.999 -24.001,-23.999 z"
   style="fill:#ad8366"
   inkscape:connector-curvature="0" />

	<path
   id="path3697"
   d="m 186.103,243.723 c -6.482,-6.95 -9.995,-16.121 -9.995,-25.625 v -89.097 h -32 v 31 c -13.255,0 -24,10.745 -24,24 0,13.255 10.745,24 24,24 v 8 c 0,19.378 11.651,36.855 29.538,44.308 l 51.69,21.538 c 2.53,1.054 5.112,1.962 7.727,2.749 -22.844,-16.713 -38.05,-31.321 -46.96,-40.873 z"
   style="fill:#a2795c"
   inkscape:connector-curvature="0" />

	<g
   id="g3701">
		<path
   id="path3699"
   d="m 200.108,192 v 0 c -4.4,0 -8,-3.6 -8,-8 v -8 c 0,-4.4 3.6,-8 8,-8 v 0 c 4.4,0 8,3.6 8,8 v 8 c 0,4.4 -3.6,8 -8,8 z"
   style="fill:#623f33"
   inkscape:connector-curvature="0" />

	</g>

	<g
   id="g3705">
		<path
   id="path3703"
   d="m 312.108,192 v 0 c -4.4,0 -8,-3.6 -8,-8 v -8 c 0,-4.4 3.6,-8 8,-8 v 0 c 4.4,0 8,3.6 8,8 v 8 c 0,4.4 -3.6,8 -8,8 z"
   style="fill:#623f33"
   inkscape:connector-curvature="0" />

	</g>

	<g
   id="g3711">
		<g
   id="g3709">
			<path
   id="path3707"
   d="m 256.108,248.219 c -14.223,0 -27.527,-3.5 -36.5,-9.605 -3.652,-2.484 -4.602,-7.461 -2.113,-11.113 2.48,-3.648 7.461,-4.598 11.113,-2.113 6.289,4.277 16.57,6.832 27.5,6.832 10.93,0 21.211,-2.555 27.5,-6.832 3.66,-2.492 8.629,-1.539 11.113,2.113 2.488,3.652 1.539,8.629 -2.113,11.113 -8.973,6.105 -22.277,9.605 -36.5,9.605 z"
   style="fill:#8f6951"
   inkscape:connector-curvature="0" />

		</g>

	</g>

	<g
   id="g3715">
		<path
   id="path3713"
   d="m 168.108,430.04 v -18.106 c 0,-7.697 -2.774,-15.135 -7.813,-20.953 l -44.019,-50.813 c -3.552,4.497 -5.93,9.93 -6.669,15.843 l -8.356,66.847 c 12.724,0.764 46.568,4.729 66.857,7.182 z"
   style="fill:#ff4f4f"
   inkscape:connector-curvature="0" />

	</g>

	<g
   id="g3719">
		<path
   id="path3717"
   d="m 168.108,419.507 -65.936,-7.326 c -2.586,-0.287 -4.914,1.576 -5.202,4.161 l -0.726,6.536 c -0.287,2.585 1.576,4.914 4.161,5.201 l 67.702,7.522 z"
   style="fill:#c93f44"
   inkscape:connector-curvature="0" />

	</g>

	<g
   id="g3723">
		<path
   id="path3721"
   d="m 344.108,430.04 v -18.106 c 0,-7.697 2.774,-15.135 7.813,-20.953 l 44.019,-50.813 c 3.552,4.497 5.93,9.93 6.669,15.843 l 8.356,66.847 c -12.724,0.764 -46.568,4.729 -66.857,7.182 z"
   style="fill:#ff4f4f"
   inkscape:connector-curvature="0" />

	</g>

	<g
   id="g3727">
		<path
   id="path3725"
   d="m 344.108,419.507 65.936,-7.326 c 2.586,-0.287 4.914,1.576 5.202,4.161 l 0.726,6.536 c 0.287,2.585 -1.576,4.914 -4.161,5.201 l -67.702,7.522 v -16.094 z"
   style="fill:#c93f44"
   inkscape:connector-curvature="0" />

	</g>

	<g
   id="g3731">
		<path
   id="path3729"
   d="m 349.398,36.553 -77.94,-33.403 c -4.849,-2.078 -10.071,-3.15 -15.347,-3.15 h -0.006 c -5.276,0 -10.498,1.072 -15.347,3.15 l -77.94,33.403 c -15.927,6.826 -25.648,23.131 -24.079,40.388 l 5.369,59.06 h 136 c 4.418,0 8,-3.582 8,-8 v -24 c 0,-4.418 3.582,-8 8,-8 h 48 c 4.418,0 8,3.582 8,8 v 24 c 0,4.418 3.582,8 8,8 h 8 l 5.369,-59.06 c 1.569,-17.258 -8.152,-33.562 -24.079,-40.388 z"
   style="fill:#ff4f4f"
   inkscape:connector-curvature="0" />

	</g>

	<g
   id="g3735">
		<path
   id="path3733"
   d="m 256.108,0 h -0.003 c -5.276,0 -10.498,1.072 -15.347,3.15 l -77.94,33.403 c -15.927,6.826 -25.648,23.13 -24.079,40.387 l 5.369,59.06 h 64 v -68.118 c 0,-12.73 5.057,-24.939 14.059,-33.941 z"
   style="fill:#f23f44"
   inkscape:connector-curvature="0" />

	</g>

	<g
   id="g3739">
		<rect
   id="rect3737"
   height="16"
   width="64"
   style="fill:#f23f44"
   y="112"
   x="288.108" />

	</g>

</g>
      <g
         id="g3743">
</g>
      <g
         id="g3745">
</g>
      <g
         id="g3747">
</g>
      <g
         id="g3749">
</g>
      <g
         id="g3751">
</g>
      <g
         id="g3753">
</g>
      <g
         id="g3755">
</g>
      <g
         id="g3757">
</g>
      <g
         id="g3759">
</g>
      <g
         id="g3761">
</g>
      <g
         id="g3763">
</g>
      <g
         id="g3765">
</g>
      <g
         id="g3767">
</g>
      <g
         id="g3769">
</g>
      <g
         id="g3771">
</g>
    </g>
    <g
       id="g3918"
       transform="matrix(0.26458333,0,0,0.26458333,-3767.4362,535.73792)">
      <g
         id="g3851">
	<path
   id="path3827"
   d="m 398.296,336 c 0,0 -50.959,38.521 -128,48 -63.667,0 -78,0.004 -78,0.004 0,0 -124.843,-102.67 -124.843,-248.469 0,-76.786 70.025,-135.535 146.811,-135.535 h 0.064 c 76.786,0 143.397,62.079 146.811,135.535 6.157,132.465 37.157,200.465 37.157,200.465 z"
   style="fill:#e69f5f"
   inkscape:connector-curvature="0" />

	<path
   id="path3829"
   d="m 214.296,88 c 0,-21.049 -14.776,-73.335 -76.354,-67.494 -41.286,23.596 -70.489,65.504 -70.489,115.029 0,145.798 77.176,235.84 148.843,235.84 z"
   style="fill:#e09156"
   inkscape:connector-curvature="0" />

	<path
   id="path3831"
   d="m 362.673,436.828 -9.576,-71.817 c -1.752,-13.142 -9.895,-24.558 -23.304,-31.262 l -37.647,-16.592 c -3.287,-1.449 -6.984,-0.491 -9.198,2.064 l -9.712,-3.574 c -6.534,-2.178 -10.94,-8.292 -10.94,-15.179 v -25.802 l 34.461,-14.358 c 17.888,-7.453 29.539,-24.93 29.539,-44.308 v -8 c 13.255,0 24,-10.745 24,-24 0,-13.255 -10.745,-24 -24,-24 v -16 c 0,-22.091 -17.909,-40 -40,-40 h -33.373 c -14.488,0 -28.383,-5.755 -38.627,-16 -10.245,10.245 -24.139,16 -38.627,16 h -33.373 c -22.091,0 -40,17.909 -40,40 v 16 c -13.255,0 -24,10.745 -24,24 0,13.255 10.745,24 24,24 v 8 c 0,19.378 11.651,36.855 29.538,44.308 l 34.462,14.359 v 25.801 c 0,6.887 -4.407,13.001 -10.94,15.179 l -9.712,3.574 c -2.214,-2.554 -5.911,-3.512 -9.198,-2.064 l -37.647,16.592 c -13.41,6.705 -21.552,18.121 -23.304,31.262 l -9.576,71.817 c -1.919,14.388 9.274,27.172 23.789,27.172 h 4.588 240 4.587 c 14.515,0 25.708,-12.784 23.79,-27.172 z"
   style="fill:#ffd7a3"
   inkscape:connector-curvature="0" />

	<path
   id="path3833"
   d="m 262.296,274.667 -96,-0.663 v 26.464 c 0,5.693 -3.017,10.852 -7.752,13.701 66.925,11.564 103.752,-39.502 103.752,-39.502 z"
   style="fill:#fdc88e"
   inkscape:connector-curvature="0" />

	<path
   id="path3835"
   d="m 326.296,160 v -16 c 0,-22.091 -17.909,-40 -40,-40 h -33.373 c -14.488,0 -28.383,-5.755 -38.627,-16 -10.245,10.245 -24.139,16 -38.627,16 h -33.373 c -22.091,0 -40,17.909 -40,40 v 16 c -13.255,0 -24,10.745 -24,24 0,13.255 10.745,24 24,24 v 8 c 0,19.378 11.651,36.855 29.538,44.308 l 51.69,21.538 c 9.75,4.063 20.208,6.154 30.77,6.154 10.562,0 21.02,-2.092 30.769,-6.154 l 51.693,-21.538 c 17.888,-7.453 29.539,-24.93 29.539,-44.308 v -8 c 13.255,0 24,-10.745 24,-24 10e-4,-13.255 -10.744,-24 -23.999,-24 z"
   style="fill:#ffe1b2"
   inkscape:connector-curvature="0" />

	<path
   id="path3837"
   d="m 158.296,192 v 0 c -4.4,0 -8,-3.6 -8,-8 v -8 c 0,-4.4 3.6,-8 8,-8 v 0 c 4.4,0 8,3.6 8,8 v 8 c 0,4.4 -3.6,8 -8,8 z"
   style="fill:#623f33"
   inkscape:connector-curvature="0" />

	<path
   id="path3839"
   d="m 270.296,192 v 0 c -4.4,0 -8,-3.6 -8,-8 v -8 c 0,-4.4 3.6,-8 8,-8 v 0 c 4.4,0 8,3.6 8,8 v 8 c 0,4.4 -3.6,8 -8,8 z"
   style="fill:#623f33"
   inkscape:connector-curvature="0" />

	<path
   id="path3841"
   d="m 214.296,248.219 c -14.223,0 -27.527,-3.5 -36.5,-9.605 -3.652,-2.484 -4.602,-7.461 -2.113,-11.113 2.48,-3.648 7.461,-4.598 11.113,-2.113 6.289,4.277 16.57,6.832 27.5,6.832 10.93,0 21.211,-2.555 27.5,-6.832 3.66,-2.492 8.629,-1.539 11.113,2.113 2.488,3.652 1.539,8.629 -2.113,11.113 -8.973,6.105 -22.277,9.605 -36.5,9.605 z"
   style="fill:#e4b07b"
   inkscape:connector-curvature="0" />

	<path
   id="path3843"
   d="m 362.673,436.828 -9.576,-71.817 c -1.752,-13.142 -9.895,-24.558 -23.304,-31.262 l -37.647,-16.592 c -4.168,-1.837 -9.007,0.185 -10.627,4.441 -10.317,27.115 -36.486,46.402 -67.223,46.402 -30.737,0 -56.906,-19.288 -67.224,-46.403 -1.62,-4.257 -6.459,-6.278 -10.627,-4.441 l -37.647,16.592 c -13.41,6.705 -21.552,18.121 -23.304,31.262 l -9.576,71.817 c -1.918,14.389 9.275,27.173 23.79,27.173 h 249.175 c 14.515,0 25.708,-12.784 23.79,-27.172 z"
   style="fill:#ff6473"
   inkscape:connector-curvature="0" />

	<path
   id="path3845"
   d="m 306.132,326.662 -28.786,46.058 c -4.386,7.017 -12.077,11.28 -20.352,11.28 h -85.396 c -8.275,0 -15.966,-4.263 -20.352,-11.28 l -28.786,-46.058 c -2.312,-3.699 -7.16,-4.864 -10.9,-2.62 l -26.278,15.767 c -3.837,2.302 -5.04,7.305 -2.668,11.1 l 35.682,57.091 h 192 l 35.682,-57.092 c 2.372,-3.795 1.169,-8.797 -2.668,-11.1 l -26.278,-15.767 c -3.74,-2.243 -8.588,-1.077 -10.9,2.621 z"
   style="fill:#8db9e2"
   inkscape:connector-curvature="0" />

	<rect
   id="rect3847"
   height="56"
   width="192"
   style="fill:#6aa2de"
   y="408"
   x="118.296" />

	<path
   id="path3849"
   d="m 224.987,96.24 c -3.851,-2.295 -7.467,-5.017 -10.691,-8.24 -10.245,10.245 -24.139,16 -38.628,16 h -33.373 c -2.748,0 -5.418,0.298 -8,0.835 v -0.029 c -18.257,3.707 -32,19.843 -32,39.194 v 16 c -13.255,0 -24,10.745 -24,24 0,13.255 10.745,24 24,24 v 8 c 0,19.378 11.651,36.855 29.538,44.308 l 51.69,21.538 c 2.53,1.054 5.112,1.962 7.727,2.749 -22.844,-16.711 -38.05,-31.32 -46.96,-40.872 -6.482,-6.95 -9.995,-16.121 -9.995,-25.625 v -97.804 c 68.569,2.045 82.076,-10.921 90.692,-24.054 z"
   style="fill:#ffd7a3"
   inkscape:connector-curvature="0" />

</g>
      <g
         id="g3853">
</g>
      <g
         id="g3855">
</g>
      <g
         id="g3857">
</g>
      <g
         id="g3859">
</g>
      <g
         id="g3861">
</g>
      <g
         id="g3863">
</g>
      <g
         id="g3865">
</g>
      <g
         id="g3867">
</g>
      <g
         id="g3869">
</g>
      <g
         id="g3871">
</g>
      <g
         id="g3873">
</g>
      <g
         id="g3875">
</g>
      <g
         id="g3877">
</g>
      <g
         id="g3879">
</g>
      <g
         id="g3881">
</g>
    </g>
    <g
       id="g4392"
       transform="matrix(0.26458333,0,0,0.26458333,-3393.2377,533.07337)">
      <g
         id="g4286">
	<g
   id="g4186">
		<rect
   id="rect4184"
   height="88.004997"
   width="206"
   style="fill:#5e342e"
   y="244"
   x="129.002" />

	</g>

	<path
   id="path4188"
   d="m 380.379,436.832 -9.188,-68.908 c -0.875,-6.564 -3.348,-12.664 -7.047,-17.87 1.714,-3.66 0.426,-8.109 -3.128,-10.241 l -26.278,-15.767 c -3.74,-2.244 -8.588,-1.079 -10.9,2.62 l -0.553,0.885 -32.343,-11.9 c -6.533,-2.178 -10.94,-8.292 -10.94,-15.179 v -25.802 l 34.461,-14.358 c 17.887,-7.453 29.539,-24.93 29.539,-44.308 v -72 c 0,-22.092 -17.909,-40.004 -40,-40.004 h -144 c -22.091,0 -40,17.913 -40,40.004 v 72 c 0,19.378 11.651,36.855 29.538,44.308 l 34.462,14.359 v 25.801 c 0,6.887 -4.407,13.001 -10.94,15.179 l -32.343,11.9 -0.553,-0.885 c -2.312,-3.698 -7.16,-4.864 -10.9,-2.62 l -26.278,15.767 c -3.555,2.133 -4.842,6.581 -3.128,10.241 -3.698,5.206 -6.172,11.306 -7.047,17.87 l -9.188,68.908 c -1.918,14.388 9.275,27.172 23.789,27.172 h 249.176 c 14.515,0 25.708,-12.784 23.789,-27.172 z"
   style="fill:#f6b47b"
   inkscape:connector-curvature="0" />

	<g
   id="g4192">
		<path
   id="path4190"
   d="m 280.002,274.671 -96,-21.334 v 47.135 c 0,5.759 -3.186,10.831 -8.017,13.659 67.094,11.744 104.017,-39.46 104.017,-39.46 z"
   style="fill:#e2a071"
   inkscape:connector-curvature="0" />

	</g>

	<g
   id="g4196">
		<path
   id="path4194"
   d="m 314.464,260.312 -51.694,21.538 c -9.749,4.062 -20.207,6.154 -30.769,6.154 v 0 c -10.562,0 -21.02,-2.092 -30.77,-6.154 l -51.691,-21.538 c -17.887,-7.453 -29.538,-24.93 -29.538,-44.308 v -72 c 0,-22.091 17.909,-40.004 40,-40.004 h 144 c 22.091,0 40,17.913 40,40.004 v 72 c 0,19.378 -11.651,36.855 -29.538,44.308 z"
   style="fill:#fdc88e"
   inkscape:connector-curvature="0" />

	</g>

	<g
   id="g4200">
		<path
   id="path4198"
   d="m 176.002,192.004 v 0 c -4.4,0 -8,-3.6 -8,-8 v -8 c 0,-4.4 3.6,-8 8,-8 v 0 c 4.4,0 8,3.6 8,8 v 8 c 0,4.4 -3.6,8 -8,8 z"
   style="fill:#623f33"
   inkscape:connector-curvature="0" />

	</g>

	<g
   id="g4204">
		<path
   id="path4202"
   d="m 288.002,192.004 v 0 c -4.4,0 -8,-3.6 -8,-8 v -8 c 0,-4.4 3.6,-8 8,-8 v 0 c 4.4,0 8,3.6 8,8 v 8 c 0,4.4 -3.6,8 -8,8 z"
   style="fill:#623f33"
   inkscape:connector-curvature="0" />

	</g>

	<g
   id="g4210">
		<g
   id="g4208">
			<path
   id="path4206"
   d="m 232.002,248.223 c -14.223,0 -27.527,-3.5 -36.5,-9.605 -3.652,-2.484 -4.602,-7.461 -2.113,-11.113 2.48,-3.648 7.461,-4.598 11.113,-2.113 6.289,4.277 16.57,6.832 27.5,6.832 10.93,0 21.211,-2.555 27.5,-6.832 3.66,-2.492 8.629,-1.539 11.113,2.113 2.488,3.652 1.539,8.629 -2.113,11.113 -8.972,6.105 -22.277,9.605 -36.5,9.605 z"
   style="fill:#e2a071"
   inkscape:connector-curvature="0" />

		</g>

	</g>

	<g
   id="g4214">
		<path
   id="path4212"
   d="m 201.231,281.85 c 2.53,1.054 5.112,1.962 7.727,2.749 -22.844,-16.711 -38.05,-31.32 -46.96,-40.872 -6.482,-6.95 -9.995,-16.121 -9.995,-25.625 v -113.292 c -18.257,3.707 -32,19.843 -32,39.194 v 72 c 0,19.378 11.651,36.855 29.538,44.308 z"
   style="fill:#f6b47b"
   inkscape:connector-curvature="0" />

	</g>

	<g
   id="g4218">
		<path
   id="path4216"
   d="m 323.839,326.666 -28.786,46.058 c -4.386,7.017 -12.077,11.28 -20.352,11.28 h -85.396 c -8.275,0 -15.966,-4.263 -20.352,-11.28 l -28.786,-46.058 c -2.312,-3.699 -7.16,-4.864 -10.9,-2.62 l -26.278,15.767 c -3.837,2.302 -5.04,7.305 -2.668,11.1 l 35.682,57.092 h 192 l 35.682,-57.092 c 2.372,-3.795 1.169,-8.797 -2.668,-11.1 l -26.278,-15.767 c -3.74,-2.244 -8.589,-1.079 -10.9,2.62 z"
   style="fill:#ffc84a"
   inkscape:connector-curvature="0" />

	</g>

	<g
   id="g4222">
		<rect
   id="rect4220"
   height="56"
   width="192"
   style="fill:#ffdc46"
   y="408.004"
   x="136.002" />

	</g>

	<g
   id="g4226">
		<path
   id="path4224"
   d="m 362.388,113.314 c -14.386,-71.314 -64.753,-113.314 -130.386,-113.314 -65.633,0 -116,42 -130.385,113.314 -15.096,74.836 -21.615,187.095 -21.615,286.686 l 56,16 c 0,-78.483 5.456,-218.291 7.355,-264.569 49.232,-1.947 152.644,-9.976 176.645,-39.432 0,0 8,209 8,304 l 56,-16 c 0,-99.59 -6.519,-211.849 -21.614,-286.685 z"
   style="fill:#6e4439"
   inkscape:connector-curvature="0" />

	</g>

	<g
   id="g4232">
		<g
   id="g4230">
			<path
   id="path4228"
   d="m 189.617,113.314 c 10.958,-54.322 42.829,-91.565 86.385,-106.262 -13.625,-4.598 -28.361,-7.052 -44,-7.052 -65.632,0 -116,42 -130.385,113.314 -15.096,74.836 -21.615,187.095 -21.615,286.686 l 56,16 c 0,-78.483 5.456,-218.291 7.355,-264.569 11.12,-0.44 25.016,-1.195 40.125,-2.432 1.868,-12.582 3.896,-24.586 6.135,-35.685 z"
   style="fill:#5e342e"
   inkscape:connector-curvature="0" />

		</g>

	</g>

	<g
   id="g4236">
		<path
   id="path4234"
   d="m 360.076,120 h -256.147 c -4.026,0 -6.981,-3.784 -6.004,-7.69 l 4.906,-19.622 c 0.689,-2.755 3.164,-4.688 6.004,-4.688 h 246.335 c 2.84,0 5.315,1.933 6.004,4.688 l 4.906,19.622 c 0.976,3.906 -1.978,7.69 -6.004,7.69 z"
   style="fill:#ffc84a"
   inkscape:connector-curvature="0" />

	</g>

	<g
   id="g4240">
		<path
   id="path4238"
   d="m 155.659,112.31 4.905,-19.622 c 0.689,-2.755 3.165,-4.688 6.004,-4.688 h -57.735 c -2.84,0 -5.315,1.933 -6.004,4.688 l -4.906,19.622 c -0.977,3.906 1.978,7.69 6.004,7.69 h 57.735 c -4.025,0 -6.979,-3.784 -6.003,-7.69 z"
   style="fill:#ffb04d"
   inkscape:connector-curvature="0" />

	</g>

	<g
   id="g4284">
		<g
   id="g4246">
			<g
   id="g4244">
				<path
   id="path4242"
   d="m 324.002,103.649 c 0,10.77 -21.73,19.5 -32.5,19.5 -10.77,0 -19.5,-8.73 -19.5,-19.5 0,-10.77 8.73,-19.5 19.5,-19.5 10.77,0 32.5,8.731 32.5,19.5 z"
   style="fill:#ffb04d"
   inkscape:connector-curvature="0" />

			</g>

		</g>

		<g
   id="g4252">
			<g
   id="g4250">
				<path
   id="path4248"
   d="m 324.002,103.649 c 0,-10.77 21.73,-19.5 32.5,-19.5 10.77,0 19.5,8.73 19.5,19.5 0,10.77 -8.73,19.5 -19.5,19.5 -10.769,0 -32.5,-8.73 -32.5,-19.5 z"
   style="fill:#ffb04d"
   inkscape:connector-curvature="0" />

			</g>

		</g>

		<g
   id="g4258">
			<g
   id="g4256">
				<path
   id="path4254"
   d="m 324.002,103.649 c 9.327,5.385 6.022,28.569 0.638,37.896 -5.385,9.327 -17.311,12.522 -26.638,7.138 -9.327,-5.385 -12.522,-17.311 -7.137,-26.638 5.384,-9.327 23.811,-23.781 33.137,-18.396 z"
   style="fill:#ffdc46"
   inkscape:connector-curvature="0" />

			</g>

		</g>

		<g
   id="g4264">
			<g
   id="g4262">
				<path
   id="path4260"
   d="m 324.002,103.649 c -9.327,-5.385 -6.022,-28.569 -0.637,-37.896 5.385,-9.327 17.311,-12.522 26.638,-7.138 9.327,5.384 12.522,17.311 7.138,26.638 -5.384,9.327 -23.812,23.781 -33.139,18.396 z"
   style="fill:#ffdc46"
   inkscape:connector-curvature="0" />

			</g>

		</g>

		<g
   id="g4270">
			<g
   id="g4268">
				<path
   id="path4266"
   d="m 324.002,103.649 c -9.327,5.385 -6.022,28.569 -0.637,37.896 5.385,9.327 17.311,12.522 26.638,7.138 9.327,-5.384 12.522,-17.311 7.138,-26.638 -5.384,-9.327 -23.812,-23.781 -33.139,-18.396 z"
   style="fill:#ffc84a"
   inkscape:connector-curvature="0" />

			</g>

		</g>

		<g
   id="g4276">
			<g
   id="g4274">
				<path
   id="path4272"
   d="m 324.002,103.649 c 9.327,-5.385 6.022,-28.569 0.638,-37.896 -5.385,-9.327 -17.311,-12.522 -26.638,-7.138 -9.327,5.385 -12.522,17.311 -7.137,26.638 5.384,9.327 23.811,23.781 33.137,18.396 z"
   style="fill:#ffc84a"
   inkscape:connector-curvature="0" />

			</g>

		</g>

		<g
   id="g4282">
			<g
   id="g4280">
				<circle
   id="circle4278"
   r="13"
   cy="103.649"
   cx="324.00201"
   style="fill:white" />

			</g>

		</g>

	</g>

</g>
      <g
         id="g4288">
</g>
      <g
         id="g4290">
</g>
      <g
         id="g4292">
</g>
      <g
         id="g4294">
</g>
      <g
         id="g4296">
</g>
      <g
         id="g4298">
</g>
      <g
         id="g4300">
</g>
      <g
         id="g4302">
</g>
      <g
         id="g4304">
</g>
      <g
         id="g4306">
</g>
      <g
         id="g4308">
</g>
      <g
         id="g4310">
</g>
      <g
         id="g4312">
</g>
      <g
         id="g4314">
</g>
      <g
         id="g4316">
</g>
    </g>
    <g
       id="g4530"
       transform="matrix(0.26458333,0,0,0.26458333,-2078.7378,533.07443)">
      <g
         id="g4448">
	<path
   id="path4394"
   d="m 391.864,422.878 -0.726,-6.536 c -0.287,-2.586 -2.616,-4.449 -5.201,-4.162 l -0.407,0.045 -7.027,-56.214 c -1.529,-12.228 -9.943,-22.492 -21.633,-26.389 l -44.914,-14.972 c -3.841,-1.28 -8.048,0.493 -9.75,4.166 -0.078,0.168 -0.159,0.337 -0.237,0.506 l -11.026,-3.676 c -6.534,-2.178 -10.94,-8.292 -10.94,-15.179 v -25.802 l 34.461,-14.359 c 17.886,-7.451 29.537,-24.928 29.537,-44.306 v -8 c 13.255,0 24,-10.745 24,-24 0,-5.513 -1.864,-10.589 -4.989,-14.641 4.809,-23.816 13.571,-70.214 12.959,-89.359 -0.409,-12.8 -8.515,-29.935 -32,-40 -41.978,-17.991 -94.608,-23.329 -111.97,-39.975 v -0.025 c -0.004,0.004 -0.011,0.008 -0.015,0.012 -0.004,-0.004 -0.011,-0.008 -0.015,-0.012 v 0.025 c -17.362,16.646 -69.992,21.984 -111.97,39.975 -23.486,10.065 -31.591,27.2 -32,40 -0.612,19.153 8.157,65.583 12.965,89.39 -3.111,4.047 -4.965,9.111 -4.965,14.61 0,13.255 10.745,24 24,24 v 8 c 0,19.377 11.651,36.854 29.538,44.308 l 34.462,14.36 v 25.801 c 0,6.887 -4.407,13.001 -10.94,15.179 l -11.026,3.676 c -0.078,-0.168 -0.159,-0.337 -0.237,-0.506 -1.703,-3.673 -5.91,-5.446 -9.75,-4.166 l -44.914,14.972 c -11.691,3.897 -20.105,14.161 -21.633,26.389 l -7.027,56.214 -0.407,-0.045 c -2.586,-0.287 -4.914,1.576 -5.202,4.162 l -0.726,6.536 c -0.287,2.585 1.576,4.914 4.161,5.201 l 11.702,1.3 v 18.621 c 0,8.836 7.163,16 16,16 h 40 176 40 c 8.837,0 16,-7.164 16,-16 v -18.621 l 11.702,-1.3 c 2.584,-0.289 4.448,-2.618 4.16,-5.203 z"
   style="fill:#f6b47b"
   inkscape:connector-curvature="0" />

	<g
   id="g4398">
		<path
   id="path4396"
   d="m 184.001,274.001 v 26.468 c 0,5.693 -3.017,10.852 -7.753,13.701 66.926,11.563 103.753,-40.169 103.753,-40.169 z"
   style="fill:#e2a071"
   inkscape:connector-curvature="0" />

	</g>

	<g
   id="g4402">
		<path
   id="path4400"
   d="m 375.971,80 c -0.409,-12.8 -8.515,-29.935 -32,-40 -41.978,-17.991 -94.608,-23.329 -111.97,-39.975 v -0.025 c -0.004,0.004 -0.011,0.008 -0.015,0.012 -0.004,-0.004 -0.011,-0.008 -0.015,-0.012 v 0.025 c -17.362,16.646 -69.992,21.984 -111.97,39.975 -23.486,10.065 -31.591,27.2 -32,40 -0.84,26.293 16,104 16,104 h 255.97 c 0,0 16.84,-77.707 16,-104 z"
   style="fill:#9d6e48"
   inkscape:connector-curvature="0" />

	</g>

	<g
   id="g4406">
		<path
   id="path4404"
   d="m 231.971,0 v 0.025 c -17.362,16.646 -69.992,21.984 -111.97,39.975 -23.486,10.065 -31.591,27.2 -32,40 -0.84,26.293 16,104 16,104 h 72 c 0,0 0,-46.847 0,-72 0,-53.334 56,-78.667 56,-112 -0.004,0.004 -0.011,0.008 -0.015,0.012 -0.004,-0.004 -0.011,-0.008 -0.015,-0.012 z"
   style="fill:#8d5f3d"
   inkscape:connector-curvature="0" />

	</g>

	<g
   id="g4410">
		<path
   id="path4408"
   d="m 378.503,356.012 c -1.528,-12.228 -9.943,-22.492 -21.633,-26.389 l -44.914,-14.972 c -3.841,-1.28 -8.048,0.493 -9.751,4.166 -11.101,23.945 -26.794,50.002 -70.204,81.183 -43.409,-31.181 -59.103,-57.238 -70.204,-81.184 -1.703,-3.673 -5.91,-5.446 -9.751,-4.166 l -44.914,14.972 c -11.691,3.897 -20.105,14.161 -21.633,26.389 l -7.609,60.872 66.111,7.117 v 40 h 176 v -40 l 66.11,-7.117 z"
   style="fill:#4f6e7f"
   inkscape:connector-curvature="0" />

	</g>

	<path
   id="path4412"
   d="m 344.001,160 v -16 c 0,-22.091 -17.909,-40 -40,-40 h -144 c -22.091,0 -40,17.909 -40,40 v 16 c -13.255,0 -24,10.745 -24,24 0,13.255 10.745,24 24,24 v 8 c 0,19.377 11.651,36.854 29.538,44.308 l 51.691,21.538 c 9.75,4.063 20.208,6.154 30.77,6.154 v 0 c 10.562,0 21.019,-2.091 30.769,-6.154 l 51.694,-21.539 c 17.887,-7.452 29.538,-24.929 29.538,-44.307 v -8 c 13.255,0 24,-10.745 24,-24 0,-13.255 -10.745,-24 -24,-24 z"
   style="fill:#fdc88e"
   inkscape:connector-curvature="0" />

	<g
   id="g4416">
		<path
   id="path4414"
   d="m 176.001,192 v 0 c -4.4,0 -8,-3.6 -8,-8 v -8 c 0,-4.4 3.6,-8 8,-8 v 0 c 4.4,0 8,3.6 8,8 v 8 c 0,4.4 -3.6,8 -8,8 z"
   style="fill:#623f33"
   inkscape:connector-curvature="0" />

	</g>

	<g
   id="g4420">
		<path
   id="path4418"
   d="m 288.001,192 v 0 c -4.4,0 -8,-3.6 -8,-8 v -8 c 0,-4.4 3.6,-8 8,-8 v 0 c 4.4,0 8,3.6 8,8 v 8 c 0,4.4 -3.6,8 -8,8 z"
   style="fill:#623f33"
   inkscape:connector-curvature="0" />

	</g>

	<g
   id="g4426">
		<g
   id="g4424">
			<path
   id="path4422"
   d="m 232.001,248.219 c -14.223,0 -27.527,-3.5 -36.5,-9.605 -3.652,-2.484 -4.602,-7.461 -2.113,-11.113 2.48,-3.648 7.461,-4.598 11.113,-2.113 6.289,4.277 16.57,6.832 27.5,6.832 10.93,0 21.211,-2.555 27.5,-6.832 3.66,-2.492 8.629,-1.539 11.113,2.113 2.488,3.652 1.539,8.629 -2.113,11.113 -8.972,6.105 -22.277,9.605 -36.5,9.605 z"
   style="fill:#e2a071"
   inkscape:connector-curvature="0" />

		</g>

	</g>

	<path
   id="path4428"
   d="m 161.997,243.723 c -6.482,-6.95 -9.995,-16.121 -9.995,-25.625 v -113.292 c -18.257,3.707 -32,19.843 -32,39.194 v 16 c -13.255,0 -24,10.745 -24,24 0,13.255 10.745,24 24,24 v 8 c 0,19.378 11.651,36.855 29.538,44.308 l 51.69,21.538 c 2.53,1.054 5.112,1.962 7.727,2.749 -22.845,-16.712 -38.051,-31.32 -46.96,-40.872 z"
   style="fill:#f6b47b"
   inkscape:connector-curvature="0" />

	<g
   id="g4432">
		<path
   id="path4430"
   d="m 144.001,430.04 v -18.106 c 0,-7.697 -2.774,-15.135 -7.813,-20.953 l -44.019,-50.813 c -3.552,4.497 -5.93,9.93 -6.669,15.843 l -8.356,66.847 c 12.724,0.764 46.568,4.729 66.857,7.182 z"
   style="fill:#33546a"
   inkscape:connector-curvature="0" />

	</g>

	<g
   id="g4436">
		<path
   id="path4434"
   d="m 144.001,419.507 -65.936,-7.326 c -2.586,-0.287 -4.914,1.576 -5.202,4.161 l -0.726,6.536 c -0.287,2.585 1.576,4.914 4.161,5.201 l 67.703,7.523 z"
   style="fill:#4f6e7f"
   inkscape:connector-curvature="0" />

	</g>

	<g
   id="g4440">
		<path
   id="path4438"
   d="m 320.001,430.04 v -18.106 c 0,-7.697 2.774,-15.135 7.813,-20.953 l 44.019,-50.813 c 3.552,4.497 5.93,9.93 6.669,15.843 l 8.356,66.847 c -12.723,0.764 -46.568,4.729 -66.857,7.182 z"
   style="fill:#33546a"
   inkscape:connector-curvature="0" />

	</g>

	<g
   id="g4444">
		<path
   id="path4442"
   d="m 320.001,419.507 65.936,-7.326 c 2.586,-0.287 4.914,1.576 5.202,4.161 l 0.726,6.536 c 0.287,2.585 -1.576,4.914 -4.161,5.201 l -67.703,7.523 z"
   style="fill:#4f6e7f"
   inkscape:connector-curvature="0" />

	</g>

	<path
   id="path4446"
   d="m 269.924,100.001 c 11.224,7.947 35.758,27.131 50.077,52 0,0 0.351,-27.953 -14.702,-52 0,0 -35.375,0 -35.375,0 z"
   style="fill:#9d6e48"
   inkscape:connector-curvature="0" />

</g>
      <g
         id="g4450">
</g>
      <g
         id="g4452">
</g>
      <g
         id="g4454">
</g>
      <g
         id="g4456">
</g>
      <g
         id="g4458">
</g>
      <g
         id="g4460">
</g>
      <g
         id="g4462">
</g>
      <g
         id="g4464">
</g>
      <g
         id="g4466">
</g>
      <g
         id="g4468">
</g>
      <g
         id="g4470">
</g>
      <g
         id="g4472">
</g>
      <g
         id="g4474">
</g>
      <g
         id="g4476">
</g>
      <g
         id="g4478">
</g>
    </g>
    <path
       style="fill:none;fill-rule:evenodd;stroke:#1d2813;stroke-width:1.32291663;stroke-linecap:butt;stroke-linejoin:miter;stroke-miterlimit:4;stroke-dasharray:1.32291667, 10.58333333;stroke-dashoffset:0;stroke-opacity:0.94174757"
       d="m -3019.6497,259.4605 -651.696,320.58728"
       id="path4671"
       inkscape:connector-curvature="0"
       inkscape:connector-type="polyline"
       inkscape:connection-start="#g2433"
       inkscape:connection-end="#g3918" />
    <path
       style="fill:none;fill-rule:evenodd;stroke:#1d2813;stroke-width:1.32291663;stroke-linecap:butt;stroke-linejoin:miter;stroke-miterlimit:4;stroke-dasharray:1.32291667, 10.58333333;stroke-dashoffset:0;stroke-opacity:0.94174757"
       d="m -2862.6799,354.42619 -0.9309,180.34239"
       id="path4679"
       inkscape:connector-curvature="0"
       inkscape:connector-type="polyline" />
    <path
       style="fill:none;fill-rule:evenodd;stroke:#1d2813;stroke-width:1.32291663;stroke-linecap:butt;stroke-linejoin:miter;stroke-miterlimit:4;stroke-dasharray:1.32291667, 10.58333333;stroke-dashoffset:0;stroke-opacity:0.94174757"
       d="m -2738.4205,295.53966 306.3606,264.57994"
       id="path4681"
       inkscape:connector-curvature="0"
       inkscape:connector-type="polyline"
       inkscape:connection-start="#g2433"
       inkscape:connection-end="#g3681" />
    <path
       style="fill:none;fill-rule:evenodd;stroke:#1d2813;stroke-width:1.32291663;stroke-linecap:butt;stroke-linejoin:miter;stroke-miterlimit:4;stroke-dasharray:1.32291667, 10.58333333;stroke-dashoffset:0;stroke-opacity:0.94174757"
       d="m -2713.9749,258.30223 661.9143,319.40815"
       id="path4683"
       inkscape:connector-curvature="0"
       inkscape:connector-type="polyline"
       inkscape:connection-start="#g2433"
       inkscape:connection-end="#g4530" />
    <path
       style="fill:none;fill-rule:evenodd;stroke:#1d2813;stroke-width:1.32291663;stroke-linecap:butt;stroke-linejoin:miter;stroke-miterlimit:4;stroke-dasharray:1.32291667, 10.58333333;stroke-dashoffset:0;stroke-opacity:0.94174757"
       d="m -2994.5843,296.8948 -299.1816,263.95867"
       id="path4685"
       inkscape:connector-curvature="0"
       inkscape:connector-type="polyline"
       inkscape:connection-start="#g2433"
       inkscape:connection-end="#g4392" />
    <g
       transform="matrix(0.40786333,0,0,0.40786333,-3329.0001,444.03254)"
       id="g4699">
      <path
         style="opacity:1;fill:#adff2f;fill-opacity:1;stroke:none;stroke-width:2.18100142;stroke-linecap:round;stroke-miterlimit:4;stroke-dasharray:none;stroke-dashoffset:0;stroke-opacity:1"
         d="m -159.73392,-53.99534 a 50.474608,50.474608 0 0 0 -50.47461,50.4746242 50.474608,50.474608 0 0 0 50.47461,50.4746228 50.474608,50.474608 0 0 0 50.47461,-50.4746228 50.474608,50.474608 0 0 0 -50.47461,-50.4746242 z m 0,2.819136 a 47.655533,47.655533 0 0 1 47.65549,47.6554882 47.655533,47.655533 0 0 1 -47.65549,47.6554878 47.655533,47.655533 0 0 1 -47.65548,-47.6554878 47.655533,47.655533 0 0 1 47.65548,-47.6554882 z"
         id="path4691"
         inkscape:connector-curvature="0" />
      <path
         style="opacity:1;fill:#32cd32;fill-opacity:1;stroke:none;stroke-width:1.89779186;stroke-linecap:round;stroke-miterlimit:4;stroke-dasharray:none;stroke-dashoffset:0;stroke-opacity:1"
         d="m -159.73392,-47.440849 a 43.920328,43.920328 0 0 0 -43.92013,43.9201333 43.920328,43.920328 0 0 0 43.92013,43.9206337 43.920328,43.920328 0 0 0 43.92014,-43.9206337 43.920328,43.920328 0 0 0 -43.92014,-43.9201333 z m 0,22.299682 a 21.620575,21.620575 0 0 1 21.62045,21.6204513 21.620575,21.620575 0 0 1 -21.62045,21.6204507 21.620575,21.620575 0 0 1 -21.62045,-21.6204507 21.620575,21.620575 0 0 1 21.62045,-21.6204513 z"
         id="path4693"
         inkscape:connector-curvature="0" />
      <path
         style="opacity:1;fill:#356d00;fill-opacity:1;stroke:none;stroke-width:1.38398945;stroke-linecap:round;stroke-miterlimit:4;stroke-dasharray:none;stroke-dashoffset:0;stroke-opacity:1"
         d="m -159.73392,-35.55005 a 32.029473,32.029473 0 0 0 -32.02934,32.0293343 32.029473,32.029473 0 0 0 32.02934,32.0293347 32.029473,32.029473 0 0 0 32.02934,-32.0293347 32.029473,32.029473 0 0 0 -32.02934,-32.0293343 z m 0,14.475776 a 17.553648,17.553648 0 0 1 17.55357,17.5535583 17.553648,17.553648 0 0 1 -17.55357,17.5535587 17.553648,17.553648 0 0 1 -17.55356,-17.5535587 17.553648,17.553648 0 0 1 17.55356,-17.5535583 z"
         id="path4695"
         inkscape:connector-curvature="0" />
      <path
         style="opacity:1;fill:#e9f6d4;fill-opacity:1;stroke:none;stroke-width:2.382056;stroke-linecap:round;stroke-miterlimit:4;stroke-dasharray:none;stroke-dashoffset:0;stroke-opacity:1"
         d="m -159.73392,-58.648466 a 55.127582,55.127582 0 0 0 -55.12774,55.1277504 55.127582,55.127582 0 0 0 55.12774,55.1277506 55.127582,55.127582 0 0 0 55.12775,-55.1277506 55.127582,55.127582 0 0 0 -55.12775,-55.1277504 z m 0,1.067259 a 54.060534,54.060534 0 0 1 54.06049,54.0604914 54.060534,54.060534 0 0 1 -54.06049,54.0604916 54.060534,54.060534 0 0 1 -54.06048,-54.0604916 54.060534,54.060534 0 0 1 54.06048,-54.0604914 z"
         id="path4697"
         inkscape:connector-curvature="0" />
    </g>
    <g
       id="g4709"
       transform="matrix(0.40786333,0,0,0.40786333,-3097.0101,444.03254)">
      <path
         inkscape:connector-curvature="0"
         id="path4701"
         d="m -159.73392,-53.99534 a 50.474608,50.474608 0 0 0 -50.47461,50.4746242 50.474608,50.474608 0 0 0 50.47461,50.4746228 50.474608,50.474608 0 0 0 50.47461,-50.4746228 50.474608,50.474608 0 0 0 -50.47461,-50.4746242 z m 0,2.819136 a 47.655533,47.655533 0 0 1 47.65549,47.6554882 47.655533,47.655533 0 0 1 -47.65549,47.6554878 47.655533,47.655533 0 0 1 -47.65548,-47.6554878 47.655533,47.655533 0 0 1 47.65548,-47.6554882 z"
         style="opacity:1;fill:#adff2f;fill-opacity:1;stroke:none;stroke-width:2.18100142;stroke-linecap:round;stroke-miterlimit:4;stroke-dasharray:none;stroke-dashoffset:0;stroke-opacity:1" />
      <path
         inkscape:connector-curvature="0"
         id="path4703"
         d="m -159.73392,-47.440849 a 43.920328,43.920328 0 0 0 -43.92013,43.9201333 43.920328,43.920328 0 0 0 43.92013,43.9206337 43.920328,43.920328 0 0 0 43.92014,-43.9206337 43.920328,43.920328 0 0 0 -43.92014,-43.9201333 z m 0,22.299682 a 21.620575,21.620575 0 0 1 21.62045,21.6204513 21.620575,21.620575 0 0 1 -21.62045,21.6204507 21.620575,21.620575 0 0 1 -21.62045,-21.6204507 21.620575,21.620575 0 0 1 21.62045,-21.6204513 z"
         style="opacity:1;fill:#32cd32;fill-opacity:1;stroke:none;stroke-width:1.89779186;stroke-linecap:round;stroke-miterlimit:4;stroke-dasharray:none;stroke-dashoffset:0;stroke-opacity:1" />
      <path
         inkscape:connector-curvature="0"
         id="path4705"
         d="m -159.73392,-35.55005 a 32.029473,32.029473 0 0 0 -32.02934,32.0293343 32.029473,32.029473 0 0 0 32.02934,32.0293347 32.029473,32.029473 0 0 0 32.02934,-32.0293347 32.029473,32.029473 0 0 0 -32.02934,-32.0293343 z m 0,14.475776 a 17.553648,17.553648 0 0 1 17.55357,17.5535583 17.553648,17.553648 0 0 1 -17.55357,17.5535587 17.553648,17.553648 0 0 1 -17.55356,-17.5535587 17.553648,17.553648 0 0 1 17.55356,-17.5535583 z"
         style="opacity:1;fill:#356d00;fill-opacity:1;stroke:none;stroke-width:1.38398945;stroke-linecap:round;stroke-miterlimit:4;stroke-dasharray:none;stroke-dashoffset:0;stroke-opacity:1" />
      <path
         inkscape:connector-curvature="0"
         id="path4707"
         d="m -159.73392,-58.648466 a 55.127582,55.127582 0 0 0 -55.12774,55.1277504 55.127582,55.127582 0 0 0 55.12774,55.1277506 55.127582,55.127582 0 0 0 55.12775,-55.1277506 55.127582,55.127582 0 0 0 -55.12775,-55.1277504 z m 0,1.067259 a 54.060534,54.060534 0 0 1 54.06049,54.0604914 54.060534,54.060534 0 0 1 -54.06049,54.0604916 54.060534,54.060534 0 0 1 -54.06048,-54.0604916 54.060534,54.060534 0 0 1 54.06048,-54.0604914 z"
         style="opacity:1;fill:#e9f6d4;fill-opacity:1;stroke:none;stroke-width:2.382056;stroke-linecap:round;stroke-miterlimit:4;stroke-dasharray:none;stroke-dashoffset:0;stroke-opacity:1" />
    </g>
    <g
       transform="matrix(0.40786333,0,0,0.40786333,-2798.2508,454.61588)"
       id="g4719">
      <path
         style="opacity:1;fill:#adff2f;fill-opacity:1;stroke:none;stroke-width:2.18100142;stroke-linecap:round;stroke-miterlimit:4;stroke-dasharray:none;stroke-dashoffset:0;stroke-opacity:1"
         d="m -159.73392,-53.99534 a 50.474608,50.474608 0 0 0 -50.47461,50.4746242 50.474608,50.474608 0 0 0 50.47461,50.4746228 50.474608,50.474608 0 0 0 50.47461,-50.4746228 50.474608,50.474608 0 0 0 -50.47461,-50.4746242 z m 0,2.819136 a 47.655533,47.655533 0 0 1 47.65549,47.6554882 47.655533,47.655533 0 0 1 -47.65549,47.6554878 47.655533,47.655533 0 0 1 -47.65548,-47.6554878 47.655533,47.655533 0 0 1 47.65548,-47.6554882 z"
         id="path4711"
         inkscape:connector-curvature="0" />
      <path
         style="opacity:1;fill:#32cd32;fill-opacity:1;stroke:none;stroke-width:1.89779186;stroke-linecap:round;stroke-miterlimit:4;stroke-dasharray:none;stroke-dashoffset:0;stroke-opacity:1"
         d="m -159.73392,-47.440849 a 43.920328,43.920328 0 0 0 -43.92013,43.9201333 43.920328,43.920328 0 0 0 43.92013,43.9206337 43.920328,43.920328 0 0 0 43.92014,-43.9206337 43.920328,43.920328 0 0 0 -43.92014,-43.9201333 z m 0,22.299682 a 21.620575,21.620575 0 0 1 21.62045,21.6204513 21.620575,21.620575 0 0 1 -21.62045,21.6204507 21.620575,21.620575 0 0 1 -21.62045,-21.6204507 21.620575,21.620575 0 0 1 21.62045,-21.6204513 z"
         id="path4713"
         inkscape:connector-curvature="0" />
      <path
         style="opacity:1;fill:#356d00;fill-opacity:1;stroke:none;stroke-width:1.38398945;stroke-linecap:round;stroke-miterlimit:4;stroke-dasharray:none;stroke-dashoffset:0;stroke-opacity:1"
         d="m -159.73392,-35.55005 a 32.029473,32.029473 0 0 0 -32.02934,32.0293343 32.029473,32.029473 0 0 0 32.02934,32.0293347 32.029473,32.029473 0 0 0 32.02934,-32.0293347 32.029473,32.029473 0 0 0 -32.02934,-32.0293343 z m 0,14.475776 a 17.553648,17.553648 0 0 1 17.55357,17.5535583 17.553648,17.553648 0 0 1 -17.55357,17.5535587 17.553648,17.553648 0 0 1 -17.55356,-17.5535587 17.553648,17.553648 0 0 1 17.55356,-17.5535583 z"
         id="path4715"
         inkscape:connector-curvature="0" />
      <path
         style="opacity:1;fill:#e9f6d4;fill-opacity:1;stroke:none;stroke-width:2.382056;stroke-linecap:round;stroke-miterlimit:4;stroke-dasharray:none;stroke-dashoffset:0;stroke-opacity:1"
         d="m -159.73392,-58.648466 a 55.127582,55.127582 0 0 0 -55.12774,55.1277504 55.127582,55.127582 0 0 0 55.12774,55.1277506 55.127582,55.127582 0 0 0 55.12775,-55.1277506 55.127582,55.127582 0 0 0 -55.12775,-55.1277504 z m 0,1.067259 a 54.060534,54.060534 0 0 1 54.06049,54.0604914 54.060534,54.060534 0 0 1 -54.06049,54.0604916 54.060534,54.060534 0 0 1 -54.06048,-54.0604916 54.060534,54.060534 0 0 1 54.06048,-54.0604914 z"
         id="path4717"
         inkscape:connector-curvature="0" />
    </g>
    <g
       id="g4729"
       transform="matrix(0.40786333,0,0,0.40786333,-2502.6027,444.03254)">
      <path
         inkscape:connector-curvature="0"
         id="path4721"
         d="m -159.73392,-53.99534 a 50.474608,50.474608 0 0 0 -50.47461,50.4746242 50.474608,50.474608 0 0 0 50.47461,50.4746228 50.474608,50.474608 0 0 0 50.47461,-50.4746228 50.474608,50.474608 0 0 0 -50.47461,-50.4746242 z m 0,2.819136 a 47.655533,47.655533 0 0 1 47.65549,47.6554882 47.655533,47.655533 0 0 1 -47.65549,47.6554878 47.655533,47.655533 0 0 1 -47.65548,-47.6554878 47.655533,47.655533 0 0 1 47.65548,-47.6554882 z"
         style="opacity:1;fill:#adff2f;fill-opacity:1;stroke:none;stroke-width:2.18100142;stroke-linecap:round;stroke-miterlimit:4;stroke-dasharray:none;stroke-dashoffset:0;stroke-opacity:1" />
      <path
         inkscape:connector-curvature="0"
         id="path4723"
         d="m -159.73392,-47.440849 a 43.920328,43.920328 0 0 0 -43.92013,43.9201333 43.920328,43.920328 0 0 0 43.92013,43.9206337 43.920328,43.920328 0 0 0 43.92014,-43.9206337 43.920328,43.920328 0 0 0 -43.92014,-43.9201333 z m 0,22.299682 a 21.620575,21.620575 0 0 1 21.62045,21.6204513 21.620575,21.620575 0 0 1 -21.62045,21.6204507 21.620575,21.620575 0 0 1 -21.62045,-21.6204507 21.620575,21.620575 0 0 1 21.62045,-21.6204513 z"
         style="opacity:1;fill:#32cd32;fill-opacity:1;stroke:none;stroke-width:1.89779186;stroke-linecap:round;stroke-miterlimit:4;stroke-dasharray:none;stroke-dashoffset:0;stroke-opacity:1" />
      <path
         inkscape:connector-curvature="0"
         id="path4725"
         d="m -159.73392,-35.55005 a 32.029473,32.029473 0 0 0 -32.02934,32.0293343 32.029473,32.029473 0 0 0 32.02934,32.0293347 32.029473,32.029473 0 0 0 32.02934,-32.0293347 32.029473,32.029473 0 0 0 -32.02934,-32.0293343 z m 0,14.475776 a 17.553648,17.553648 0 0 1 17.55357,17.5535583 17.553648,17.553648 0 0 1 -17.55357,17.5535587 17.553648,17.553648 0 0 1 -17.55356,-17.5535587 17.553648,17.553648 0 0 1 17.55356,-17.5535583 z"
         style="opacity:1;fill:#356d00;fill-opacity:1;stroke:none;stroke-width:1.38398945;stroke-linecap:round;stroke-miterlimit:4;stroke-dasharray:none;stroke-dashoffset:0;stroke-opacity:1" />
      <path
         inkscape:connector-curvature="0"
         id="path4727"
         d="m -159.73392,-58.648466 a 55.127582,55.127582 0 0 0 -55.12774,55.1277504 55.127582,55.127582 0 0 0 55.12774,55.1277506 55.127582,55.127582 0 0 0 55.12775,-55.1277506 55.127582,55.127582 0 0 0 -55.12775,-55.1277504 z m 0,1.067259 a 54.060534,54.060534 0 0 1 54.06049,54.0604914 54.060534,54.060534 0 0 1 -54.06049,54.0604916 54.060534,54.060534 0 0 1 -54.06048,-54.0604916 54.060534,54.060534 0 0 1 54.06048,-54.0604914 z"
         style="opacity:1;fill:#e9f6d4;fill-opacity:1;stroke:none;stroke-width:2.382056;stroke-linecap:round;stroke-miterlimit:4;stroke-dasharray:none;stroke-dashoffset:0;stroke-opacity:1" />
    </g>
    <g
       transform="matrix(0.40786333,0,0,0.40786333,-2262.0601,444.03254)"
       id="g4739">
      <path
         style="opacity:1;fill:#adff2f;fill-opacity:1;stroke:none;stroke-width:2.18100142;stroke-linecap:round;stroke-miterlimit:4;stroke-dasharray:none;stroke-dashoffset:0;stroke-opacity:1"
         d="m -159.73392,-53.99534 a 50.474608,50.474608 0 0 0 -50.47461,50.4746242 50.474608,50.474608 0 0 0 50.47461,50.4746228 50.474608,50.474608 0 0 0 50.47461,-50.4746228 50.474608,50.474608 0 0 0 -50.47461,-50.4746242 z m 0,2.819136 a 47.655533,47.655533 0 0 1 47.65549,47.6554882 47.655533,47.655533 0 0 1 -47.65549,47.6554878 47.655533,47.655533 0 0 1 -47.65548,-47.6554878 47.655533,47.655533 0 0 1 47.65548,-47.6554882 z"
         id="path4731"
         inkscape:connector-curvature="0" />
      <path
         style="opacity:1;fill:#32cd32;fill-opacity:1;stroke:none;stroke-width:1.89779186;stroke-linecap:round;stroke-miterlimit:4;stroke-dasharray:none;stroke-dashoffset:0;stroke-opacity:1"
         d="m -159.73392,-47.440849 a 43.920328,43.920328 0 0 0 -43.92013,43.9201333 43.920328,43.920328 0 0 0 43.92013,43.9206337 43.920328,43.920328 0 0 0 43.92014,-43.9206337 43.920328,43.920328 0 0 0 -43.92014,-43.9201333 z m 0,22.299682 a 21.620575,21.620575 0 0 1 21.62045,21.6204513 21.620575,21.620575 0 0 1 -21.62045,21.6204507 21.620575,21.620575 0 0 1 -21.62045,-21.6204507 21.620575,21.620575 0 0 1 21.62045,-21.6204513 z"
         id="path4733"
         inkscape:connector-curvature="0" />
      <path
         style="opacity:1;fill:#356d00;fill-opacity:1;stroke:none;stroke-width:1.38398945;stroke-linecap:round;stroke-miterlimit:4;stroke-dasharray:none;stroke-dashoffset:0;stroke-opacity:1"
         d="m -159.73392,-35.55005 a 32.029473,32.029473 0 0 0 -32.02934,32.0293343 32.029473,32.029473 0 0 0 32.02934,32.0293347 32.029473,32.029473 0 0 0 32.02934,-32.0293347 32.029473,32.029473 0 0 0 -32.02934,-32.0293343 z m 0,14.475776 a 17.553648,17.553648 0 0 1 17.55357,17.5535583 17.553648,17.553648 0 0 1 -17.55357,17.5535587 17.553648,17.553648 0 0 1 -17.55356,-17.5535587 17.553648,17.553648 0 0 1 17.55356,-17.5535583 z"
         id="path4735"
         inkscape:connector-curvature="0" />
      <path
         style="opacity:1;fill:#e9f6d4;fill-opacity:1;stroke:none;stroke-width:2.382056;stroke-linecap:round;stroke-miterlimit:4;stroke-dasharray:none;stroke-dashoffset:0;stroke-opacity:1"
         d="m -159.73392,-58.648466 a 55.127582,55.127582 0 0 0 -55.12774,55.1277504 55.127582,55.127582 0 0 0 55.12774,55.1277506 55.127582,55.127582 0 0 0 55.12775,-55.1277506 55.127582,55.127582 0 0 0 -55.12775,-55.1277504 z m 0,1.067259 a 54.060534,54.060534 0 0 1 54.06049,54.0604914 54.060534,54.060534 0 0 1 -54.06049,54.0604916 54.060534,54.060534 0 0 1 -54.06048,-54.0604916 54.060534,54.060534 0 0 1 54.06048,-54.0604914 z"
         id="path4737"
         inkscape:connector-curvature="0" />
    </g>
  </g>
</svg>
